<svg xmlns="http://www.w3.org/2000/svg" viewBox="0 0 760 520" role="img" aria-labelledby="title"><title id="title">Healthcare portal UI</title><defs><linearGradient id="bg" x1="0" y1="0" x2="1" y2="1"><stop stop-color="#eef9ff"/><stop offset="1" stop-color="#ffffff"/></linearGradient><linearGradient id="b" x1="0" y1="0" x2="1" y2="1"><stop stop-color="#18a6ff"/><stop offset="1" stop-color="#075fd8"/></linearGradient></defs><rect width="760" height="520" rx="36" fill="url(#bg)"/><rect x="48" y="46" width="664" height="428" rx="28" fill="#fff" stroke="#cde7ff"/><rect x="48" y="46" width="170" height="428" rx="28" fill="#07172f"/><rect x="82" y="96" width="94" height="12" rx="6" fill="#fff" opacity=".9"/><rect x="82" y="144" width="106" height="38" rx="14" fill="#078cff"/><g fill="#fff" opacity=".18"><rect x="82" y="218" width="96" height="10" rx="5"/><rect x="82" y="252" width="114" height="10" rx="5"/><rect x="82" y="286" width="80" height="10" rx="5"/></g><rect x="256" y="94" width="188" height="118" rx="24" fill="#eff8ff"/><rect x="474" y="94" width="188" height="118" rx="24" fill="#eff8ff"/><rect x="256" y="252" width="406" height="174" rx="24" fill="#f8fbff" stroke="#dbeefe"/><path d="M290 370 C346 326 380 356 430 302 S520 286 622 260" fill="none" stroke="url(#b)" stroke-width="8" stroke-linecap="round"/><g fill="#0f172a" opacity=".13"><rect x="282" y="126" width="82" height="12" rx="6"/><rect x="282" y="158" width="124" height="12" rx="6"/><rect x="500" y="126" width="92" height="12" rx="6"/><rect x="500" y="158" width="116" height="12" rx="6"/></g></svg>